<svg width="26" height="21" viewBox="0 0 26 21" fill="none" xmlns="http://www.w3.org/2000/svg">
<path d="M19.6667 6.42857V3.71429C19.6667 2.99441 19.3857 2.30402 18.8856 1.795C18.3855 1.28597 17.7072 1 17 1H3.66667C2.95942 1 2.28115 1.28597 1.78105 1.795C1.28095 2.30402 1 2.99441 1 3.71429V11.8571C1 12.577 1.28095 13.2674 1.78105 13.7764C2.28115 14.2855 2.95942 14.5714 3.66667 14.5714H6.33333M6.33333 9.14286C6.33333 8.42298 6.61428 7.73259 7.11438 7.22357C7.61448 6.71454 8.29276 6.42857 9 6.42857H22.3333C23.0406 6.42857 23.7189 6.71454 24.219 7.22357C24.719 7.73259 25 8.42298 25 9.14286V17.2857C25 18.0056 24.719 18.696 24.219 19.205C23.7189 19.714 23.0406 20 22.3333 20H9C8.29276 20 7.61448 19.714 7.11438 19.205C6.61428 18.696 6.33333 18.0056 6.33333 17.2857V9.14286ZM13 13.2143C13 13.9342 13.281 14.6245 13.781 15.1336C14.2811 15.6426 14.9594 15.9286 15.6667 15.9286C16.3739 15.9286 17.0522 15.6426 17.5523 15.1336C18.0524 14.6245 18.3333 13.9342 18.3333 13.2143C18.3333 12.4944 18.0524 11.804 17.5523 11.295C17.0522 10.786 16.3739 10.5 15.6667 10.5C14.9594 10.5 14.2811 10.786 13.781 11.295C13.281 11.804 13 12.4944 13 13.2143Z" stroke="#F1F2F6" stroke-width="2" stroke-linecap="round" stroke-linejoin="round"/>
</svg>
