<svg width="24" height="24" viewBox="0 0 24 24" fill="none" xmlns="http://www.w3.org/2000/svg">
<path d="M14.75 1H23V9.25H14.75V1Z" stroke="#F1F2F6" stroke-opacity="0.8" stroke-width="2" stroke-linecap="round" stroke-linejoin="round"/>
<path d="M1 14.75H9.25V23H1V14.75Z" stroke="#F1F2F6" stroke-opacity="0.8" stroke-width="2" stroke-linecap="round" stroke-linejoin="round"/>
<path d="M14.75 18.875C14.75 19.969 15.1846 21.0182 15.9582 21.7918C16.7318 22.5654 17.781 23 18.875 23C19.969 23 21.0182 22.5654 21.7918 21.7918C22.5654 21.0182 23 19.969 23 18.875C23 17.781 22.5654 16.7318 21.7918 15.9582C21.0182 15.1846 19.969 14.75 18.875 14.75C17.781 14.75 16.7318 15.1846 15.9582 15.9582C15.1846 16.7318 14.75 17.781 14.75 18.875Z" stroke="#F1F2F6" stroke-opacity="0.8" stroke-width="2" stroke-linecap="round" stroke-linejoin="round"/>
<path d="M1 5.125C1 5.6667 1.1067 6.2031 1.314 6.70357C1.5213 7.20404 1.82514 7.65877 2.20818 8.04182C2.59123 8.42486 3.04596 8.7287 3.54643 8.936C4.0469 9.1433 4.5833 9.25 5.125 9.25C5.6667 9.25 6.2031 9.1433 6.70357 8.936C7.20404 8.7287 7.65877 8.42486 8.04182 8.04182C8.42486 7.65877 8.7287 7.20404 8.936 6.70357C9.1433 6.2031 9.25 5.6667 9.25 5.125C9.25 4.5833 9.1433 4.0469 8.936 3.54643C8.7287 3.04596 8.42486 2.59123 8.04182 2.20818C7.65877 1.82514 7.20404 1.5213 6.70357 1.314C6.2031 1.1067 5.6667 1 5.125 1C4.5833 1 4.0469 1.1067 3.54643 1.314C3.04596 1.5213 2.59123 1.82514 2.20818 2.20818C1.82514 2.59123 1.5213 3.04596 1.314 3.54643C1.1067 4.0469 1 4.5833 1 5.125Z" stroke="#F1F2F6" stroke-opacity="0.8" stroke-width="2" stroke-linecap="round" stroke-linejoin="round"/>
</svg>
