<svg width="24" height="21" viewBox="0 0 24 21" fill="none" xmlns="http://www.w3.org/2000/svg">
<path d="M21.749 14.257L11.7409 14.257L11.7409 18.7479C11.7409 18.9956 11.6675 19.2377 11.53 19.4435C11.3925 19.6494 11.1972 19.8099 10.9686 19.9047C10.74 19.9994 10.4885 20.0243 10.2459 19.976C10.0033 19.9277 9.78039 19.8084 9.60543 19.6333L1.36628 11.3854C1.13175 11.1506 1 10.8321 1 10.5C1 10.1679 1.13175 9.84944 1.36628 9.61459L9.60543 1.36667C9.78039 1.19158 10.0033 1.07235 10.2459 1.02405C10.4885 0.975748 10.74 1.00055 10.9686 1.09531C11.1972 1.19008 11.3925 1.35055 11.53 1.55645C11.6675 1.76235 11.7409 2.00442 11.7409 2.25207L11.7409 6.74297L21.749 6.74297C22.0808 6.74297 22.399 6.87492 22.6336 7.10978C22.8682 7.34463 23 7.66317 23 7.99531L23 13.0047C23 13.3368 22.8682 13.6554 22.6336 13.8902C22.399 14.1251 22.0808 14.257 21.749 14.257Z" stroke="#060F0A" stroke-opacity="0.8" stroke-width="2" stroke-linecap="round" stroke-linejoin="round"/>
</svg>
