<svg width="48" height="48" viewBox="0 0 48 48" fill="none" xmlns="http://www.w3.org/2000/svg">
<path d="M19.4998 19.5L28.4998 27M28.4998 19.5L19.4998 27M1 6.11111C1 4.75556 1.53849 3.45553 2.49701 2.49701C3.45553 1.53849 4.75556 1 6.11111 1H41.8889C43.2444 1 44.5445 1.53849 45.503 2.49701C46.4615 3.45553 47 4.75556 47 6.11111V41.8889C47 43.2444 46.4615 44.5445 45.503 45.503C44.5445 46.4615 43.2444 47 41.8889 47H6.11111C4.75556 47 3.45553 46.4615 2.49701 45.503C1.53849 44.5445 1 43.2444 1 41.8889V6.11111Z" stroke="#F25E6A" stroke-width="2" stroke-linecap="round" stroke-linejoin="round"/>
</svg>
