<svg width="18" height="16" viewBox="0 0 18 16" fill="none" xmlns="http://www.w3.org/2000/svg">
<path d="M15.6706 8.50513L9.0074 15L2.34419 8.50513C1.90469 8.08422 1.5585 7.5783 1.32743 7.01925C1.09635 6.46019 0.985392 5.8601 1.00154 5.25676C1.01769 4.65343 1.16059 4.05992 1.42125 3.51361C1.68191 2.9673 2.05468 2.48002 2.51609 2.08247C2.97749 1.68491 3.51754 1.38568 4.10222 1.20363C4.6869 1.02158 5.30355 0.960645 5.91333 1.02467C6.52312 1.08868 7.11283 1.27627 7.64533 1.57561C8.17783 1.87496 8.64159 2.27957 9.0074 2.76397C9.3748 2.28309 9.83909 1.88201 10.3712 1.58584C10.9034 1.28968 11.4919 1.1048 12.1 1.04278C12.708 0.980762 13.3226 1.04294 13.9051 1.22541C14.4876 1.40789 15.0256 1.70674 15.4854 2.10326C15.9452 2.49978 16.3169 2.98544 16.5772 3.52983C16.8375 4.07423 16.9808 4.66564 16.9982 5.26706C17.0156 5.86848 16.9067 6.46695 16.6782 7.02503C16.4498 7.58311 16.1068 8.08877 15.6706 8.51038" stroke="#2CB9AC" stroke-width="2" stroke-linecap="round" stroke-linejoin="round"/>
</svg>
