<svg width="25" height="22" viewBox="0 0 25 22" fill="none" xmlns="http://www.w3.org/2000/svg">
<path d="M22.089 11.7216L12.5106 21L2.93227 11.7216C2.30049 11.1203 1.80284 10.3976 1.47067 9.59892C1.1385 8.80027 0.979002 7.943 1.00221 7.08109C1.02543 6.21918 1.23085 5.37131 1.60555 4.59087C1.98025 3.81043 2.5161 3.11432 3.17938 2.54638C3.84265 1.97844 4.61897 1.55098 5.45944 1.2909C6.29992 1.03083 7.18635 0.943779 8.06292 1.03524C8.93948 1.12669 9.78719 1.39467 10.5527 1.82231C11.3181 2.24994 11.9848 2.82796 12.5106 3.51996C13.0388 2.83298 13.7062 2.26001 14.4711 1.83692C15.2361 1.41382 16.0821 1.14971 16.9562 1.06112C17.8303 0.972517 18.7137 1.06134 19.5511 1.32202C20.3885 1.5827 21.1619 2.00963 21.8228 2.57609C22.4837 3.14255 23.018 3.83634 23.3922 4.61405C23.7664 5.39175 23.9724 6.23663 23.9974 7.0958C24.0224 7.95497 23.8658 8.80993 23.5374 9.60719C23.2091 10.4044 22.716 11.1268 22.089 11.7291" stroke="#ECECEC" stroke-width="2" stroke-linecap="round" stroke-linejoin="round"/>
</svg>
