<svg width="15" height="15" viewBox="0 0 15 15" fill="none" xmlns="http://www.w3.org/2000/svg">
<path d="M14 14L9.66667 9.66667M1 6.05556C1 6.71946 1.13077 7.37686 1.38483 7.99023C1.6389 8.6036 2.01129 9.16092 2.48074 9.63037C2.95019 10.0998 3.50751 10.4722 4.12088 10.7263C4.73425 10.9803 5.39165 11.1111 6.05556 11.1111C6.71946 11.1111 7.37686 10.9803 7.99023 10.7263C8.6036 10.4722 9.16092 10.0998 9.63037 9.63037C10.0998 9.16092 10.4722 8.6036 10.7263 7.99023C10.9803 7.37686 11.1111 6.71946 11.1111 6.05556C11.1111 5.39165 10.9803 4.73425 10.7263 4.12088C10.4722 3.50751 10.0998 2.95019 9.63037 2.48074C9.16092 2.01129 8.6036 1.6389 7.99023 1.38483C7.37686 1.13077 6.71946 1 6.05556 1C5.39165 1 4.73425 1.13077 4.12088 1.38483C3.50751 1.6389 2.95019 2.01129 2.48074 2.48074C2.01129 2.95019 1.6389 3.50751 1.38483 4.12088C1.13077 4.73425 1 5.39165 1 6.05556Z" stroke="#666666" stroke-width="2" stroke-linecap="round" stroke-linejoin="round"/>
</svg>
